<svg width="761" height="280" viewBox="0 0 761 280" fill="none"
  xmlns="http://www.w3.org/2000/svg">
  <g clip-path="url(#clip0_3413_18031)">
    <rect width="761" height="280.09" fill="white"/>
    <rect width="761" height="280.09" fill="#111618"/>
    <rect width="761" height="280.09" fill="black" fill-opacity="0.2"/>
    <path d="M649.569 -23.0248C641.922 -23.0248 635.279 -27.5668 635.279 -32.6886V-61.68C635.279 -66.834 628.604 -71.3438 620.99 -71.3438H141.015C133.4 -71.3438 126.725 -66.8018 126.725 -61.68V-32.6886C126.725 -27.5346 120.05 -23.0248 112.436 -23.0248H14.3542C6.73965 -23.0248 0.064769 -18.515 0.064769 -13.361V112.558C0.064769 117.712 6.73965 122.222 14.3542 122.222H239.096C246.711 122.222 253.386 126.764 253.386 131.886V160.877C253.386 166.063 260.061 170.541 267.675 170.541H492.417C500.032 170.541 506.707 175.051 506.707 180.205V301.342C506.707 306.528 500.032 311.006 492.417 311.006H395.211C387.596 311.006 380.921 306.496 380.921 301.342V228.524C380.921 223.37 374.279 218.86 366.632 218.86H268.55C260.936 218.86 254.261 214.35 254.261 209.196V180.205C254.261 175.019 247.618 170.541 239.971 170.541H14.2894C6.67488 170.541 0 175.051 0 180.205V292.094C0 297.28 6.67488 301.758 14.2894 301.758H112.371C119.986 301.758 126.661 306.267 126.661 311.421V305.834C126.661 310.988 133.335 315.498 140.95 315.498H619.013C626.628 315.498 633.303 310.988 633.303 305.834V299.267C633.303 294.08 639.977 289.603 647.592 289.603H745.674C753.288 289.603 759.963 285.093 759.963 279.939V131.95C759.963 126.796 753.288 122.287 745.674 122.287H521.871C514.257 122.287 507.582 117.777 507.582 112.623V83.6314C507.582 78.4452 500.939 73.9676 493.292 73.9676H268.55C260.936 73.9676 254.261 69.4578 254.261 64.3038V-13.0065C254.261 -18.1927 260.936 -22.6703 268.55 -22.6703H366.632C374.279 -22.6703 380.921 -18.1605 380.921 -13.0065V15.9849C380.921 21.1389 387.596 25.6487 395.211 25.6487H493.39C501.037 25.6487 507.679 30.1906 507.679 35.3124V64.3038C507.679 69.4901 514.354 73.9676 521.968 73.9676H746.711C754.358 73.9676 761 69.4578 761 64.3038V-13.0065C761 -18.1927 754.52 -22.6703 746.711 -22.6703L649.569 -23.0248Z" fill="#192024"/>
  </g>
  <defs>
    <clipPath id="clip0_3413_18031">
      <rect width="761" height="280.09" fill="white"/>
    </clipPath>
  </defs>
</svg>
